PathFileType	4	(X/Y/Z)	C:/Users/opensim2020/Desktop/walking_exp_matlab/subject03_walking12_straight_01.trc	
DataRate	CameraRate	NumFrames	NumMarkers	Units	OrigDataRate	OrigDataStartFrame	OrigNumFrames	
100.00	100.00	5	48	mm	100.00	555	211	
Frame#	Time	LFHD			RFHD			LBHD			RBHD			C7			T10			CLAV			STRN			RBAK			LSHO			LUPA			LELB			LFRM			LWRA			LWRB			LFIN			RSHO			RUPA			RELB			RFRM			RWRA			RWRB			RFIN			LASI			RASI			LPSI			RPSI			LTHI			LKNE			LTIB			LANK			LHEE			LTOE			RTHI			RKNE			RTIB			RANK			RHEE			RTOE			*39			*40			*41			*42			*43			*44			*45			*46			*47			
		X1	Y1	Z1	X2	Y2	Z2	X3	Y3	Z3	X4	Y4	Z4	X5	Y5	Z5	X6	Y6	Z6	X7	Y7	Z7	X8	Y8	Z8	X9	Y9	Z9	X10	Y10	Z10	X11	Y11	Z11	X12	Y12	Z12	X13	Y13	Z13	X14	Y14	Z14	X15	Y15	Z15	X16	Y16	Z16	X17	Y17	Z17	X18	Y18	Z18	X19	Y19	Z19	X20	Y20	Z20	X21	Y21	Z21	X22	Y22	Z22	X23	Y23	Z23	X24	Y24	Z24	X25	Y25	Z25	X26	Y26	Z26	X27	Y27	Z27	X28	Y28	Z28	X29	Y29	Z29	X30	Y30	Z30	X31	Y31	Z31	X32	Y32	Z32	X33	Y33	Z33	X34	Y34	Z34	X35	Y35	Z35	X36	Y36	Z36	X37	Y37	Z37	X38	Y38	Z38	X39	Y39	Z39	X40	Y40	Z40	X41	Y41	Z41	X42	Y42	Z42	X43	Y43	Z43	X44	Y44	Z44	X45	Y45	Z45	X46	Y46	Z46	X47	Y47	Z47	X48	Y48	Z48	

1	0.000	-1017.53510	-1310.34656	1608.08594	-886.96552	-1331.21741	1606.84436	-1034.46265	-1436.50244	1560.67920	-904.08411	-1452.40710	1559.09912	-988.66754	-1477.01208	1407.66272	-992.40466	-1542.82959	1103.81189	-972.12067	-1362.61633	1320.96375	-978.91498	-1335.76147	1150.58240	-905.26862	-1556.90771	1237.79858	-1131.64636	-1382.65820	1363.18652	-1203.18396	-1374.83325	1168.92224	-1211.79016	-1357.04431	1046.43518	-1207.03992	-1326.76953	919.90088	-1176.58386	-1312.03906	800.61407	-1230.75439	-1321.92749	807.46771	-1221.73267	-1311.38916	722.53198	-820.99463	-1429.86450	1349.24316	-743.53809	-1462.33203	1131.40625	-723.58362	-1456.08167	1019.50708	-714.58789	-1452.26147	882.79272	-741.15295	-1426.37732	783.29663	-702.12610	-1463.47559	783.22443	-704.71094	-1446.67529	710.68652	-1101.37402	-1400.39307	917.01971	-865.96851	-1404.56201	927.14380	-1051.46301	-1559.96375	966.87885	-905.30878	-1558.90552	972.80548	-1143.90454	-1514.97437	629.47089	-1105.85535	-1537.91663	457.40936	-1111.78027	-1627.33960	276.99866	-1075.57239	-1681.68042	63.12483	-1039.03552	-1718.30566	28.50644	-1072.01721	-1531.05298	30.87863	-822.24994	-1391.98694	646.83502	-859.39020	-1321.16541	482.19138	-867.93903	-1392.48303	301.53162	-923.63354	-1460.56274	99.15395	-978.88763	-1508.66882	75.32829	-935.93768	-1331.94019	46.43581																											 
2	0.010	-1019.46826	-1305.82886	1607.36230	-888.63043	-1326.63428	1605.99597	-1036.22595	-1431.51855	1559.29041	-906.10852	-1446.75208	1557.66272	-990.57965	-1471.43958	1406.36072	-995.60773	-1535.15271	1101.22229	-974.81085	-1357.50403	1319.66748	-980.20306	-1330.12317	1149.68323	-907.61456	-1551.72278	1236.65063	-1133.16125	-1376.57959	1362.06653	-1204.79663	-1367.03357	1167.98999	-1213.25952	-1346.89233	1045.97424	-1207.15601	-1313.06995	919.97729	-1175.15527	-1295.13025	801.83997	-1229.79346	-1305.33154	807.80450	-1219.43872	-1291.67957	723.47565	-822.78619	-1425.23315	1348.14771	-744.80469	-1459.50525	1130.94702	-724.57281	-1453.91150	1018.92377	-715.30322	-1451.77686	882.10663	-742.12274	-1427.78931	782.06250	-702.45404	-1464.19678	782.70178	-705.40308	-1448.58508	709.77625	-1103.23450	-1394.48438	915.71472	-867.20129	-1399.54016	926.47339	-1053.28235	-1554.33533	965.78662	-907.11182	-1553.78369	971.98865	-1144.23584	-1512.51538	627.74304	-1105.69080	-1537.17859	456.08200	-1112.02795	-1625.97974	276.68826	-1075.41162	-1681.92480	62.76686	-1039.14563	-1718.26990	28.70337	-1072.34131	-1530.53760	30.82087	-823.21436	-1384.91309	647.09955	-860.58313	-1313.36279	482.74033	-868.46729	-1380.05811	299.97784	-923.75171	-1441.21436	95.22561	-979.35455	-1488.30212	69.87778	-935.36572	-1311.01135	46.01564																											 
3	0.020	-1020.99573	-1300.89453	1606.41028	-890.18890	-1321.82764	1605.08594	-1037.86157	-1426.38757	1557.77612	-907.55969	-1442.53320	1556.22864	-992.44922	-1465.84131	1405.21191	-997.52625	-1529.32922	1099.97485	-975.52728	-1351.81238	1318.44751	-981.46606	-1324.38232	1148.49988	-909.85876	-1546.29626	1235.45154	-1134.60510	-1370.32019	1360.75684	-1205.90649	-1358.93848	1166.66138	-1214.45239	-1336.83704	1045.31409	-1207.17334	-1299.69312	920.44122	-1173.75439	-1278.23938	803.30066	-1228.38757	-1288.70630	808.29852	-1217.05188	-1271.89868	724.78546	-824.50049	-1420.29810	1346.98975	-746.12000	-1456.13049	1130.26135	-725.72607	-1450.98340	1018.05615	-716.16644	-1450.64832	881.23798	-743.27075	-1428.49927	780.76385	-702.78198	-1464.64636	782.20618	-706.31439	-1450.38464	708.65497	-1104.43127	-1388.65076	913.98120	-868.44757	-1394.32202	925.67584	-1054.97461	-1548.73425	964.56610	-908.87701	-1548.48364	970.95441	-1144.65430	-1507.66370	626.91815	-1105.61365	-1534.04773	455.65741	-1112.23645	-1624.31030	276.35291	-1075.57996	-1681.13696	63.05629	-1039.15857	-1718.22864	28.98316	-1072.31885	-1530.23242	30.52048	-823.99310	-1377.75122	647.21777	-861.66888	-1305.58655	483.20758	-868.66522	-1367.40381	298.38141	-923.60400	-1421.62305	91.62562	-979.36267	-1467.45239	64.69402	-934.44684	-1289.68811	45.65053																											 
4	0.030	-1021.99530	-1295.59729	1605.20203	-891.67877	-1316.93787	1604.13428	-1039.41724	-1421.10388	1556.18518	-909.12231	-1437.35254	1554.68896	-994.23438	-1459.94653	1403.98535	-998.26978	-1525.92200	1100.25867	-976.23566	-1345.98804	1317.32141	-982.22699	-1318.76746	1147.22754	-911.97552	-1540.66492	1234.16919	-1135.93237	-1363.90515	1359.39319	-1207.84204	-1351.22437	1165.89160	-1215.65198	-1326.80896	1044.55505	-1206.96118	-1286.47058	920.91589	-1172.20984	-1261.52698	804.95148	-1226.79517	-1272.23413	808.88434	-1214.47717	-1251.56519	726.96838	-826.07343	-1415.20300	1345.73120	-747.38190	-1452.17664	1129.37354	-726.89722	-1447.53064	1017.04932	-717.01135	-1448.96899	880.26605	-744.32996	-1428.86328	779.26752	-703.08716	-1464.12769	781.47974	-707.28406	-1451.36328	707.29865	-1104.92114	-1383.49646	912.27594	-869.60156	-1388.79639	924.90332	-1056.73499	-1542.62598	963.17450	-910.52814	-1543.12512	969.78577	-1145.46216	-1502.47729	625.60004	-1105.92566	-1530.58228	454.73969	-1112.37061	-1622.56653	275.99466	-1076.24060	-1678.61255	64.03626	-1039.17993	-1718.21179	29.23259	-1072.35962	-1529.91223	30.31935	-824.50128	-1370.41968	647.17072	-862.52075	-1297.84729	483.54791	-868.73920	-1354.40259	296.81790	-922.99939	-1400.96887	87.94678	-978.84863	-1446.30225	59.83184	-933.27252	-1268.22083	45.43669																											 
5	0.040	-1023.87250	-1290.56458	1604.19495	-893.06885	-1311.76086	1602.99243	-1040.87146	-1415.62524	1554.53467	-910.55829	-1431.95129	1553.04871	-995.94690	-1453.99646	1402.60950	-1001.26532	-1517.39404	1097.30066	-978.12195	-1340.17297	1315.88403	-983.18030	-1312.92932	1145.71631	-913.97327	-1534.82434	1232.81165	-1137.13354	-1357.24585	1357.84863	-1209.15479	-1343.05554	1164.75232	-1216.89294	-1316.98083	1043.81384	-1207.18176	-1273.25073	921.26025	-1170.65002	-1244.94324	806.85046	-1225.20630	-1255.96021	809.65887	-1211.81165	-1231.75696	729.02240	-827.42749	-1409.67200	1344.19934	-748.81470	-1447.43799	1128.23340	-728.17987	-1443.45386	1015.85980	-717.89758	-1446.73047	879.11041	-745.36761	-1428.68628	777.64160	-703.45496	-1463.03015	780.53229	-708.64758	-1452.08801	705.67157	-1106.52563	-1377.14722	910.57996	-870.77863	-1383.15234	923.89960	-1058.09033	-1537.03711	961.43536	-912.11108	-1537.53967	968.48199	-1146.15625	-1497.57996	624.11780	-1105.95862	-1528.79736	453.32657	-1112.53674	-1620.72803	275.64697	-1075.97693	-1678.40283	64.05476	-1039.21545	-1718.10754	29.55368	-1072.33728	-1529.66455	29.99006	-825.21515	-1363.24670	646.88300	-863.19269	-1290.08740	483.73071	-868.41113	-1341.36060	295.39191	-921.99817	-1380.90222	84.75131	-977.76172	-1425.10022	55.42865	-931.97870	-1246.64709	45.34303																											 
